<svg height="24" viewBox="0 0 24 24" width="24" xmlns="http://www.w3.org/2000/svg"><path d="m20.772 10.155-1.368-4.104c-.409-1.227-1.552-2.051-2.845-2.051h-9.118c-1.293 0-2.436.824-2.845 2.051l-1.368 4.104c-.721.302-1.228 1.014-1.228 1.845v5c0 .738.404 1.376 1 1.723v1.174 1.103c0 .553.447 1 1 1h1c.553 0 1-.447 1-1v-2h12v2c0 .553.447 1 1 1h1c.553 0 1-.447 1-1v-2.277c.596-.347 1-.984 1-1.723v-5c0-.831-.507-1.543-1.228-1.845zm-13.331-4.155h9.117c.431 0 .813.274.949.684l1.106 3.316h-.794-11.638-.794l1.105-3.316c.137-.41.519-.684.949-.684zm-1.941 10c-.828 0-1.5-.672-1.5-1.5s.672-1.5 1.5-1.5 1.5.672 1.5 1.5-.672 1.5-1.5 1.5zm13 0c-.828 0-1.5-.672-1.5-1.5s.672-1.5 1.5-1.5 1.5.672 1.5 1.5-.672 1.5-1.5 1.5z"/></svg>